<svg width="81" height="81" viewBox="0 0 81 81" fill="none" xmlns="http://www.w3.org/2000/svg">
<g clip-path="url(#clip0)">
<path d="M56.0798 8.42188H24.1562C24.1562 8.42188 20.1633 8.42188 20.1633 12.4219H60.0728C60.0728 8.42188 56.0798 8.42188 56.0798 8.42188ZM68.0547 20.4219C68.0547 16.4219 64.0658 16.4219 64.0658 16.4219H16.1743C16.1743 16.4219 12.1854 16.4219 12.1854 20.4219V24.4219H68.0547V20.4219ZM76.0326 24.4219L73.6753 22.0539V28.4219H6.56476V22.0539L4.20347 24.4219C1.84217 26.7899 0.150373 27.4219 1.1005 32.4219C2.04663 37.4059 6.62891 64.7259 7.31044 68.4219C8.05611 72.4779 12.1894 72.4219 12.1894 72.4219H68.0587C68.0587 72.4219 72.188 72.4779 72.9377 68.4219C73.6192 64.7259 78.1975 37.4059 79.1476 32.4219C80.0897 27.4219 78.3979 26.7899 76.0326 24.4219ZM56.156 48.4099C56.156 50.6259 54.356 52.4219 52.135 52.4219H28.1051C27.0386 52.4219 26.0159 51.9992 25.2618 51.2468C24.5077 50.4944 24.0841 49.4739 24.0841 48.4099V40.4219H28.0931V48.4219H52.147V40.4219H56.156V48.4099Z" fill="white"/>
</g>
<defs>
<clipPath id="clip0">
<rect x="0.0301208" y="0.421875" width="80.1799" height="80" rx="10" fill="white"/>
</clipPath>
</defs>
</svg>
