<svg width="81" height="81" viewBox="0 0 81 81" fill="none" xmlns="http://www.w3.org/2000/svg">
<path d="M40.3599 27.0885C43.018 27.0885 45.5673 26.035 47.4468 24.1596C49.3264 22.2843 50.3823 19.7407 50.3823 17.0885C50.3823 14.4364 49.3264 11.8928 47.4468 10.0175C45.5673 8.14212 43.018 7.08855 40.3599 7.08855C37.7017 7.08855 35.1525 8.14212 33.2729 10.0175C31.3933 11.8928 30.3374 14.4364 30.3374 17.0885C30.3374 19.7407 31.3933 22.2843 33.2729 24.1596C35.1525 26.035 37.7017 27.0885 40.3599 27.0885ZM40.3599 38.8885C32.4755 31.5885 21.9853 27.0885 10.2924 27.0885V63.7552C21.9853 63.7552 32.4755 68.2552 40.3599 75.5552C48.2442 68.2552 58.7344 63.7552 70.4273 63.7552V27.0885C58.7344 27.0885 48.2442 31.5885 40.3599 38.8885Z" fill="white"/>
</svg>
