<svg width="81" height="81" viewBox="0 0 81 81" fill="none" xmlns="http://www.w3.org/2000/svg">
<path d="M15.3754 30.8219H21.6551L22.6204 59.6219H14.5399L15.3754 30.8219ZM10.1316 61.2219H71.0683V64.4219H75.8791V69.2219H79.0863V72.4219H2.11365V69.2219H5.32084V64.4219H10.1316V61.2219ZM74.2755 22.5211L40.6032 8.42188L6.92444 22.5211V24.4219H74.2755V22.5211ZM13.3388 26.0219H67.8611V29.2219H13.3388V26.0219ZM59.4198 30.8219H65.6963L66.6697 59.6219H58.5779L59.4198 30.8219ZM44.7437 30.8219H51.0202L51.9823 59.6219H43.8986L44.7437 30.8219ZM30.0643 30.8219H36.3424L37.2982 59.6219H29.2176L30.0643 30.8219Z" fill="white"/>
</svg>
